<?xml version="1.0" encoding="UTF-8" standalone="no"?>
<svg
   xmlns:dc="http://purl.org/dc/elements/1.1/"
   xmlns:cc="http://creativecommons.org/ns#"
   xmlns:rdf="http://www.w3.org/1999/02/22-rdf-syntax-ns#"
   xmlns:svg="http://www.w3.org/2000/svg"
   xmlns="http://www.w3.org/2000/svg"
   xmlns:sodipodi="http://sodipodi.sourceforge.net/DTD/sodipodi-0.dtd"
   xmlns:inkscape="http://www.inkscape.org/namespaces/inkscape"
   viewBox="0 0 512 512"
   version="1.1"
   id="svg4"
   sodipodi:docname="levies.svg"
   inkscape:version="0.92.4 (5da689c313, 2019-01-14)">
  <metadata
     id="metadata10">
    <rdf:RDF>
      <cc:Work
         rdf:about="">
        <dc:format>image/svg+xml</dc:format>
        <dc:type
           rdf:resource="http://purl.org/dc/dcmitype/StillImage" />
      </cc:Work>
    </rdf:RDF>
  </metadata>
  <defs
     id="defs8" />
  <sodipodi:namedview
     pagecolor="#ffffff"
     bordercolor="#666666"
     borderopacity="1"
     objecttolerance="10"
     gridtolerance="10"
     guidetolerance="10"
     inkscape:pageopacity="0"
     inkscape:pageshadow="2"
     inkscape:window-width="870"
     inkscape:window-height="480"
     id="namedview6"
     showgrid="false"
     inkscape:zoom="0.4609375"
     inkscape:cx="256"
     inkscape:cy="256"
     inkscape:window-x="0"
     inkscape:window-y="0"
     inkscape:window-maximized="0"
     inkscape:current-layer="svg4" />
  <path
     d="m 101.20297,507.57393 38.0723,-51.65685 c -0.2634,-0.65622 -0.72483,-1.77545 -1.95,-3.3775 -2.84363,-3.78532 -8.32487,-8.8191 -14.33357,-13.08647 -5.95869,-4.18076 -12.5795,-7.74833 -17.32005,-9.39923 -1.90183,-0.63404 -3.06589,-0.77025 -3.91345,-0.85826 l -25.705226,34.81723 z m 12.05121,-93.90671 c 6.69711,2.59974 13.5872,6.47372 20.13837,11.1207 6.63584,4.71359 12.73946,9.96539 17.30075,15.64577 L 174.99327,407.58247 163.2191,384.58901 137.95841,380.2362 Z M 74.069759,309.15782 c 9.446899,17.0625 28.414291,37.63499 51.301341,57.67652 l 4.68538,-6.28467 40.70301,7.09966 4.39448,0.81148 20.90814,40.81397 -4.84519,6.60788 c 42.5916,26.77081 83.12589,42.77826 96.97076,29.95827 89.96137,-94.58232 153.77321,-207.05698 166.66563,-281.12665 l -17.70114,-3.05929 c -11.4793,65.51729 -71.6342,174.72593 -156.60943,265.94452 l -36.85326,-27.23172 c 86.26228,-92.98936 147.12699,-201.56858 159.64359,-273.6892 l -17.70115,-3.05929 c -11.4293,65.6039 -71.4976,174.76254 -156.42782,266.05906 L 192.21923,362.41869 C 278.4815,269.42935 339.34622,160.85013 351.81282,88.642898 L 334.16166,85.670206 C 322.68238,151.1875 262.66407,260.43275 177.68384,351.64267 L 140.69897,324.38301 C 226.96125,231.39365 287.82597,122.81444 300.34256,50.693807 L 282.64141,47.634515 C 271.16213,113.15181 211.14381,222.39706 126.16359,313.60698 L 89.178718,286.34731 C 175.3544,193.40796 236.39233,84.728746 248.82231,12.658116 L 231.17116,9.6854263 C 219.46245,76.605351 157.03985,189.08623 69.261545,281.44975 c -3.47051,6.96891 -1.351261,16.59955 4.808214,27.70807 z"
     id="path2"
     inkscape:connector-curvature="0"
     style="fill:#000000" />
</svg>
